<?xml version="1.0" encoding="UTF-8"?>
<!DOCTYPE svg PUBLIC "-//W3C//DTD SVG 1.1//EN" "http://www.w3.org/Graphics/SVG/1.1/DTD/svg11.dtd">
<!-- Creator: CorelDRAW X7 -->
<svg xmlns="http://www.w3.org/2000/svg" xml:space="preserve" width="141.884mm" height="141.884mm" version="1.1" style="shape-rendering:geometricPrecision; text-rendering:geometricPrecision; image-rendering:optimizeQuality; fill-rule:evenodd; clip-rule:evenodd"
viewBox="0 0 1575 1575"
 xmlns:xlink="http://www.w3.org/1999/xlink">
 <defs>
  <style type="text/css">
   <![CDATA[
    .str0 {stroke:#FFDA44;stroke-width:2.77576}
    .fil2 {fill:none;fill-rule:nonzero}
    .fil0 {fill:#FFDA44}
    .fil1 {fill:#373435;fill-rule:nonzero}
   ]]>
  </style>
 </defs>
 <g id="Camada_x0020_1">
  <metadata id="CorelCorpID_0Corel-Layer"/>
  <rect class="fil0" width="1575" height="1575"/>
  <path class="fil1" d="M1147 471c0,61 -8,115 -26,162 -18,47 -42,87 -74,120 -32,32 -70,57 -114,75 -44,18 -93,27 -146,30l-7 271c0,9 -4,16 -12,20 -8,5 -23,7 -44,7 -10,0 -19,-1 -27,-2 -7,-1 -13,-2 -17,-5 -5,-2 -8,-5 -10,-9 -2,-3 -3,-6 -3,-11l-6 -305c0,-13 2,-23 5,-31 3,-8 8,-15 13,-20 6,-5 13,-8 22,-10 8,-2 18,-3 30,-3l26 0c49,0 91,-8 125,-23 34,-16 61,-36 82,-61 20,-26 35,-56 44,-89 10,-34 14,-70 14,-107 0,-42 -6,-81 -17,-115 -12,-35 -29,-65 -53,-91 -23,-25 -52,-45 -88,-59 -36,-14 -78,-21 -127,-21 -41,0 -78,5 -109,14 -32,9 -59,19 -82,30 -23,11 -42,21 -57,30 -14,9 -25,14 -32,14 -4,0 -9,-1 -12,-3 -4,-1 -7,-4 -9,-9 -3,-4 -5,-10 -6,-17 -1,-7 -2,-16 -2,-26 0,-12 1,-22 2,-29 2,-7 6,-14 13,-20 7,-7 20,-15 41,-26 19,-11 43,-21 71,-31 28,-9 59,-17 92,-23 33,-7 67,-10 102,-10 69,0 128,10 178,29 50,20 91,47 123,82 33,35 57,75 73,121 16,47 24,97 24,151zm-331 918c0,19 -1,35 -4,48 -2,13 -7,23 -14,30 -7,8 -16,13 -27,16 -11,3 -25,4 -42,4 -18,0 -32,-1 -44,-4 -11,-3 -20,-8 -27,-16 -7,-7 -11,-17 -14,-30 -2,-13 -3,-29 -3,-48 0,-19 1,-35 3,-48 3,-12 7,-23 14,-30 7,-7 16,-12 27,-15 12,-3 26,-5 44,-5 17,0 31,2 42,5 11,3 20,8 27,15 7,7 12,18 14,30 3,13 4,29 4,48z"/>
  <path id="1" class="fil2 str0" d="M1147 471c0,61 -8,115 -26,162 -18,47 -42,87 -74,120 -32,32 -70,57 -114,75 -44,18 -93,27 -146,30l-7 271c0,9 -4,16 -12,20 -8,5 -23,7 -44,7 -10,0 -19,-1 -27,-2 -7,-1 -13,-2 -17,-5 -5,-2 -8,-5 -10,-9 -2,-3 -3,-6 -3,-11l-6 -305c0,-13 2,-23 5,-31 3,-8 8,-15 13,-20 6,-5 13,-8 22,-10 8,-2 18,-3 30,-3l26 0c49,0 91,-8 125,-23 34,-16 61,-36 82,-61 20,-26 35,-56 44,-89 10,-34 14,-70 14,-107 0,-42 -6,-81 -17,-115 -12,-35 -29,-65 -53,-91 -23,-25 -52,-45 -88,-59 -36,-14 -78,-21 -127,-21 -41,0 -78,5 -109,14 -32,9 -59,19 -82,30 -23,11 -42,21 -57,30 -14,9 -25,14 -32,14 -4,0 -9,-1 -12,-3 -4,-1 -7,-4 -9,-9 -3,-4 -5,-10 -6,-17 -1,-7 -2,-16 -2,-26 0,-12 1,-22 2,-29 2,-7 6,-14 13,-20 7,-7 20,-15 41,-26 19,-11 43,-21 71,-31 28,-9 59,-17 92,-23 33,-7 67,-10 102,-10 69,0 128,10 178,29 50,20 91,47 123,82 33,35 57,75 73,121 16,47 24,97 24,151zm-331 918c0,19 -1,35 -4,48 -2,13 -7,23 -14,30 -7,8 -16,13 -27,16 -11,3 -25,4 -42,4 -18,0 -32,-1 -44,-4 -11,-3 -20,-8 -27,-16 -7,-7 -11,-17 -14,-30 -2,-13 -3,-29 -3,-48 0,-19 1,-35 3,-48 3,-12 7,-23 14,-30 7,-7 16,-12 27,-15 12,-3 26,-5 44,-5 17,0 31,2 42,5 11,3 20,8 27,15 7,7 12,18 14,30 3,13 4,29 4,48z"/>
 </g>
</svg>
